<svg xmlns="http://www.w3.org/2000/svg" xmlns:xlink="http://www.w3.org/1999/xlink" width="256" height="256" viewBox="0 0 256 256" fill="none"><path d="M256 128L255.874 160.074L255.494 173.315L254.861 183.408L253.973 191.832L252.828 199.154L251.424 205.662L249.757 211.522L247.822 216.843L245.616 221.696L243.13 226.134L240.357 230.194L237.286 233.904L233.904 237.286L230.194 240.357L226.134 243.13L221.696 245.616L216.843 247.822L211.522 249.757L205.662 251.424L199.154 252.828L191.832 253.973L183.408 254.861L173.315 255.494L160.074 255.874L128 256L95.9257 255.874L82.6849 255.494L72.5919 254.861L64.1679 253.973L56.8457 252.828L50.3382 251.424L44.4777 249.757L39.1572 247.822L34.3038 245.616L29.866 243.13L25.8063 240.357L22.0962 237.286L18.714 233.904L15.643 230.194L12.8699 226.134L10.3842 221.696L8.1776 216.843L6.24333 211.522L4.5761 205.662L3.17168 199.154L2.02672 191.832L1.13868 183.408L0.505658 173.315L0.126352 160.074L0 128L0.126352 95.9257L0.505658 82.6849L1.13868 72.5919L2.02672 64.1679L3.17168 56.8457L4.5761 50.3382L6.24333 44.4777L8.1776 39.1572L10.3842 34.3038L12.8699 29.866L15.643 25.8063L18.714 22.0962L22.0962 18.714L25.8063 15.643L29.866 12.8699L34.3038 10.3842L39.1572 8.1776L44.4777 6.24333L50.3382 4.5761L56.8457 3.17168L64.1679 2.02672L72.5919 1.13868L82.6849 0.505658L95.9257 0.126352L128 0L160.074 0.126352L173.315 0.505658L183.408 1.13868L191.832 2.02672L199.154 3.17168L205.662 4.5761L211.522 6.24333L216.843 8.1776L221.696 10.3842L226.134 12.8699L230.194 15.643L233.904 18.714L237.286 22.0962L240.357 25.8063L243.13 29.866L245.616 34.3038L247.822 39.1572L249.757 44.4777L251.424 50.3382L252.828 56.8457L253.973 64.1679L254.861 72.5919L255.494 82.6849L255.874 95.9257L256 128Z"   fill="#007AFF" ></path><path d="M153.238 127.57L200.488 127.75L200.488 196C185.488 202.75 128.952 202.75 128.952 202.75C113.859 202.75 100.122 196.84 100.122 196.84C86.3881 190.934 76.4525 181 76.4525 181C66.515 171.062 60.6125 157.33 60.6125 157.33C54.7062 143.596 54.7025 128.5 54.7025 128.5C54.7025 113.406 60.6125 99.67 60.6125 99.67C66.5188 85.9356 76.4525 76 76.4525 76C86.39 66.0625 100.122 60.16 100.122 60.16C113.857 54.2537 128.952 54.25 128.952 54.25C146.202 54.25 161.397 61.705 161.397 61.705C176.585 69.1581 186.988 82.195 186.988 82.195L149.622 111.625C140.154 99.9062 158.337 67.75 158.337 67.75C144.603 61 128.952 61 128.952 61C115.265 61 102.747 66.34 102.747 66.34C90.2319 71.6837 81.1925 80.74 81.1925 80.74C72.1456 89.7869 66.7925 102.295 66.7925 102.295C61.4487 114.811 61.4525 128.5 61.4525 128.5C61.4525 142.188 66.7925 154.705 66.7925 154.705C72.1362 167.221 81.1925 176.26 81.1925 176.26C90.2394 185.307 102.747 190.66 102.747 190.66C115.263 196.004 128.952 196 128.952 196C141.609 196 153.238 191.5 153.238 191.5L153.238 184.57C141.519 189.258 128.952 189.25 128.952 189.25C116.577 189.25 105.327 184.42 105.327 184.42C94.0775 179.592 85.9625 171.49 85.9625 171.49C77.8531 163.381 73.0325 152.125 73.0325 152.125C68.2044 140.875 68.2025 128.5 68.2025 128.5C68.2025 116.125 73.0325 104.875 73.0325 104.875C77.8606 93.625 85.9625 85.51 85.9625 85.51C94.0719 77.4006 105.327 72.58 105.327 72.58C116.577 67.7519 128.952 67.75 128.952 67.75C143.109 67.75 155.533 73.84 155.533 73.84C167.954 79.9337 176.488 90.625 176.488 90.625L171.238 94.84C163.644 85.3712 152.577 79.945 152.577 79.945C141.515 74.5075 128.952 74.5 128.952 74.5C117.984 74.5 107.997 78.76 107.997 78.76C98.0131 83.0256 90.7475 90.295 90.7475 90.295C83.4819 97.5606 79.2125 107.545 79.2125 107.545C74.9469 117.529 74.9525 128.5 74.9525 128.5C74.9525 139.469 79.2125 149.455 79.2125 149.455C83.4781 159.439 90.7475 166.705 90.7475 166.705C98.0131 173.971 107.997 178.24 107.997 178.24C117.982 182.506 128.952 182.5 128.952 182.5C141.89 182.5 153.238 177.25 153.238 177.25L153.238 170.32C141.894 175.758 128.952 175.75 128.952 175.75C116.109 175.75 105.238 169.42 105.238 169.42C94.3625 163.092 88.0325 152.215 88.0325 152.215C81.7044 141.34 81.7025 128.5 81.7025 128.5C81.7025 115.656 88.0325 104.785 88.0325 104.785C94.3606 93.91 105.238 87.58 105.238 87.58C116.113 81.2519 128.952 81.25 128.952 81.25C139.921 81.25 149.622 85.99 149.622 85.99C159.326 90.7244 165.897 99.07 165.897 99.07L160.543 103.195C154.918 96.07 146.622 92.035 146.622 92.035C138.326 88.0038 128.952 88 128.952 88C112.171 88 100.318 99.91 100.318 99.91C88.4581 111.816 88.4525 128.5 88.4525 128.5C88.4525 145.188 100.318 157.09 100.318 157.09C112.177 168.996 128.952 169 128.952 169C142.077 169 153.238 162.625 153.238 162.625L153.238 155.785C142.269 162.254 128.952 162.25 128.952 162.25C114.984 162.25 105.088 152.365 105.088 152.365C95.1969 142.474 95.2025 128.5 95.2025 128.5C95.2025 114.531 105.088 104.635 105.088 104.635C114.978 94.7444 128.952 94.75 128.952 94.75C136.827 94.75 143.772 98.17 143.772 98.17C150.71 101.592 155.397 107.5 155.397 107.5L149.952 111.625C141.796 101.5 128.952 101.5 128.952 101.5C117.796 101.5 109.872 109.42 109.872 109.42C101.951 117.342 101.952 128.5 101.952 128.5C101.952 139.656 109.872 147.58 109.872 147.58C117.794 155.502 128.952 155.5 128.952 155.5C143.296 155.5 153.238 147.535 153.238 147.535L153.238 127.57ZM193.738 127.57L200.488 127.57L200.488 196L193.738 196L193.738 127.57ZM180.238 127.57L186.988 127.57L186.988 196L180.238 196L180.238 127.57ZM166.738 127.57L173.488 127.57L173.488 196L166.738 196L166.738 127.57Z"   fill="#FFFFFF" ></path></svg>